# xmcd
#
# Track frame offsets:
#	150
#	17907
#	39582
#	57190
#	81005
#	93710
#	108687
#	142667
#	162742
#	196352
#	212140
#
# Disc length: 3273 seconds
#
# Revision: 2
# Processed by: cddbd v1.4PL0 Copyright (c) Steve Scherf et al.
# Submitted via: EasyCDDAExtractor 6.0.0.1
#
DISCID=9a0cc70b
DTITLE=Celso Salim - Luckyboy
DYEAR=2003
DGENRE=Blues
TTITLE0=Chicken Walkin'
TTITLE1=Please Stop
TTITLE2=I Know Why You're Here
TTITLE3=Me and the Daggone Blues
TTITLE4=Rush Hour Boogie
TTITLE5=Sweet Thing
TTITLE6=Mr. Banker
TTITLE7=T.V. Mama
TTITLE8=Red Sun Rising
TTITLE9=Lucky Boy
TTITLE10=Pony Boy, Long Hard Ride
EXTD=
EXTT0=
EXTT1=
EXTT2=
EXTT3=
EXTT4=
EXTT5=
EXTT6=
EXTT7=
EXTT8=
EXTT9=
EXTT10=
PLAYORDER=
